<svg width="20" height="26" viewBox="0 0 20 26" fill="none" xmlns="http://www.w3.org/2000/svg">
<path d="M4.2825 20.5H20C19.9963 21.6625 19.9725 22.5288 19.8588 23.2125C19.7213 24.0288 19.4713 24.46 19.0888 24.7675C18.705 25.075 18.1675 25.2763 17.1513 25.385C16.105 25.4975 14.7188 25.5 12.7313 25.5H7.19375C5.20625 25.5 3.81875 25.4988 2.77375 25.385C1.7575 25.2763 1.22 25.075 0.836254 24.7675C0.453754 24.46 0.203754 24.0287 0.066254 23.2137C0.0561704 23.151 0.047003 23.088 0.0387542 23.025C-0.0112458 22.6613 -0.0362459 22.4787 0.121254 22.05C0.280004 21.62 0.347504 21.5538 0.485004 21.4188C0.931481 20.9955 1.48815 20.7065 2.09125 20.585C2.45375 20.5075 2.92875 20.5 4.2825 20.5Z" fill="white"/>
<path opacity="0.5" d="M0.90875 1.41625C1.29125 1.03125 1.82625 0.78125 2.83875 0.64375C3.88125 0.5025 5.26125 0.5 7.24125 0.5H12.7587C14.7387 0.5 16.1187 0.5025 17.1613 0.64375C18.1737 0.78125 18.7088 1.03125 19.0913 1.41625C19.4725 1.80125 19.7213 2.34125 19.8575 3.3625C19.9975 4.4125 20 5.80625 20 7.8025V20.5H4.2825C2.9275 20.5 2.455 20.5075 2.09125 20.585C1.45 20.7225 0.89125 21.0188 0.485 21.4188C0.3475 21.5538 0.28 21.62 0.12125 22.05C0.045486 22.2325 0.00436821 22.4275 0 22.625V7.8025C0 5.80625 0.0024998 4.41375 0.1425 3.3625C0.27875 2.3425 0.5275 1.80125 0.90875 1.41625Z" fill="white"/>
<path d="M4.0625 6.75C4.0625 6.50136 4.16127 6.2629 4.33709 6.08709C4.5129 5.91127 4.75136 5.8125 5 5.8125H15C15.2486 5.8125 15.4871 5.91127 15.6629 6.08709C15.8387 6.2629 15.9375 6.50136 15.9375 6.75C15.9375 6.99864 15.8387 7.2371 15.6629 7.41291C15.4871 7.58873 15.2486 7.6875 15 7.6875H5C4.75136 7.6875 4.5129 7.58873 4.33709 7.41291C4.16127 7.2371 4.0625 6.99864 4.0625 6.75ZM5 10.1875C4.75136 10.1875 4.5129 10.2863 4.33709 10.4621C4.16127 10.6379 4.0625 10.8764 4.0625 11.125C4.0625 11.3736 4.16127 11.6121 4.33709 11.7879C4.5129 11.9637 4.75136 12.0625 5 12.0625H11.25C11.4986 12.0625 11.7371 11.9637 11.9129 11.7879C12.0887 11.6121 12.1875 11.3736 12.1875 11.125C12.1875 10.8764 12.0887 10.6379 11.9129 10.4621C11.7371 10.2863 11.4986 10.1875 11.25 10.1875H5Z" fill="white"/>
</svg>
