<svg width="26" height="26" viewBox="0 0 26 26" fill="none" xmlns="http://www.w3.org/2000/svg">
<path d="M1.66667 14.4167H10.1667C10.5424 14.4167 10.9027 14.2674 11.1684 14.0017C11.4341 13.7361 11.5833 13.3757 11.5833 13V1.66667C11.5833 1.29094 11.4341 0.930609 11.1684 0.664932C10.9027 0.399255 10.5424 0.25 10.1667 0.25H1.66667C1.29094 0.25 0.930609 0.399255 0.664932 0.664932C0.399255 0.930609 0.25 1.29094 0.25 1.66667V13C0.25 13.3757 0.399255 13.7361 0.664932 14.0017C0.930609 14.2674 1.29094 14.4167 1.66667 14.4167ZM0.25 24.3333C0.25 24.7091 0.399255 25.0694 0.664932 25.3351C0.930609 25.6007 1.29094 25.75 1.66667 25.75H10.1667C10.5424 25.75 10.9027 25.6007 11.1684 25.3351C11.4341 25.0694 11.5833 24.7091 11.5833 24.3333V18.6667C11.5833 18.2909 11.4341 17.9306 11.1684 17.6649C10.9027 17.3993 10.5424 17.25 10.1667 17.25H1.66667C1.29094 17.25 0.930609 17.3993 0.664932 17.6649C0.399255 17.9306 0.25 18.2909 0.25 18.6667V24.3333ZM14.4167 24.3333C14.4167 24.7091 14.5659 25.0694 14.8316 25.3351C15.0973 25.6007 15.4576 25.75 15.8333 25.75H24.3333C24.7091 25.75 25.0694 25.6007 25.3351 25.3351C25.6007 25.0694 25.75 24.7091 25.75 24.3333V14.4167C25.75 14.0409 25.6007 13.6806 25.3351 13.4149C25.0694 13.1493 24.7091 13 24.3333 13H15.8333C15.4576 13 15.0973 13.1493 14.8316 13.4149C14.5659 13.6806 14.4167 14.0409 14.4167 14.4167V24.3333ZM15.8333 10.1667H24.3333C24.7091 10.1667 25.0694 10.0174 25.3351 9.75173C25.6007 9.48606 25.75 9.12572 25.75 8.75V1.66667C25.75 1.29094 25.6007 0.930609 25.3351 0.664932C25.0694 0.399255 24.7091 0.25 24.3333 0.25H15.8333C15.4576 0.25 15.0973 0.399255 14.8316 0.664932C14.5659 0.930609 14.4167 1.29094 14.4167 1.66667V8.75C14.4167 9.12572 14.5659 9.48606 14.8316 9.75173C15.0973 10.0174 15.4576 10.1667 15.8333 10.1667Z" fill="#E6E6E6"/>
</svg>
