<?xml version="1.0" standalone="no"?><!DOCTYPE svg PUBLIC "-//W3C//DTD SVG 1.1//EN" "http://www.w3.org/Graphics/SVG/1.1/DTD/svg11.dtd"><svg t="1712259560988" class="icon" viewBox="0 0 1024 1024" version="1.1" xmlns="http://www.w3.org/2000/svg" p-id="10297" xmlns:xlink="http://www.w3.org/1999/xlink" width="200" height="200"><path d="M960 352h-192a32 32 0 0 1-32-32V160c0-70.592 57.408-128 128-128s128 57.408 128 128v160a32 32 0 0 1-32 32z m-160-64h128V160c0-35.296-28.704-64-64-64s-64 28.704-64 64v128z" p-id="10298" fill="#13227a"></path><path d="M768 992H64a32 32 0 0 1-32-32V160c0-70.592 57.408-128 128-128h704a32 32 0 1 1 0 64c-35.296 0-64 28.704-64 64v800a32 32 0 0 1-32 32zM96 928h640V160c0-23.296 6.24-45.152 17.184-64H160c-35.296 0-64 28.704-64 64v768z" p-id="10299" fill="#13227a"></path><path d="M640 288H192a32 32 0 1 1 0-64h448a32 32 0 1 1 0 64zM640 416H192a32 32 0 1 1 0-64h448a32 32 0 1 1 0 64zM384 544H192a32 32 0 1 1 0-64h192a32 32 0 1 1 0 64zM912 992c-12.128 0-23.2-6.848-28.64-17.696l-48-96A32.064 32.064 0 0 1 832 864V464c0-44.128 35.872-80 80-80s80 35.872 80 80V864c0 4.96-1.152 9.888-3.36 14.304l-48 96c-5.44 10.848-16.512 17.696-28.64 17.696z m-16-135.552l16 32 16-32V464c0-8.8-7.2-16-16-16s-16 7.2-16 16v392.448z" p-id="10300" fill="#13227a"></path></svg>