<svg width="33" height="33" viewBox="0 0 33 33" fill="none" xmlns="http://www.w3.org/2000/svg">
<path d="M12.7404 24.9463L9.71871 21.3079L5.47913 26.75H22.4375L16.98 19.4888L12.7404 24.9463Z" fill="#0057FF"/>
<path opacity="0.3" d="M22.4375 26.75H5.47913L9.71871 21.3079L12.7404 24.9463L16.98 19.4888L22.4375 26.75ZM23.2083 9.79167H18.5833V8.25H3.16663V29.8333H24.75V14.4167H23.2083V9.79167Z" fill="#0057FF"/>
<path d="M27.8334 5.16669V0.541687H24.75V5.16669H20.125V8.25002H24.75V12.8596H27.8334V8.25002H32.4584V5.16669H27.8334ZM24.75 29.8334H3.16671V8.25002H18.5834V5.16669H3.16671C1.47087 5.16669 0.083374 6.55419 0.083374 8.25002V29.8334C0.083374 31.5292 1.47087 32.9167 3.16671 32.9167H24.75C26.4459 32.9167 27.8334 31.5292 27.8334 29.8334V14.4167H24.75V29.8334Z" fill="#0057FF"/>
</svg>
