<svg width="18" height="18" viewBox="0 0 18 18" fill="none" xmlns="http://www.w3.org/2000/svg">
<path d="M3.84921 14.1508L1.34921 12.7758C1.16588 12.6758 1.06188 12.5301 1.03721 12.3388C1.01254 12.1474 1.06654 11.9848 1.19921 11.8508L1.49921 11.5508C1.56588 11.4841 1.64521 11.4381 1.73721 11.4128C1.82921 11.3874 1.91654 11.3834 1.99921 11.4008L4.19921 11.7008L8.09921 7.80078L1.29921 4.10078C1.04921 3.96745 0.903544 3.75911 0.862211 3.47578C0.820877 3.19245 0.899877 2.95078 1.09921 2.75078L1.34921 2.50078C1.46588 2.38411 1.59521 2.30911 1.73721 2.27578C1.87921 2.24245 2.02488 2.24245 2.17421 2.27578L11.2492 4.60078L15.1742 0.725781C15.4575 0.442448 15.8119 0.300781 16.2372 0.300781C16.6625 0.300781 17.0165 0.442448 17.2992 0.725781C17.5825 1.00911 17.7242 1.36345 17.7242 1.78878C17.7242 2.21411 17.5825 2.56811 17.2992 2.85078L13.3992 6.75078L15.7242 15.7758C15.7575 15.9424 15.7532 16.1051 15.7112 16.2638C15.6692 16.4224 15.5902 16.5598 15.4742 16.6758L15.3492 16.8008C15.1159 17.0341 14.8449 17.1258 14.5362 17.0758C14.2275 17.0258 13.9985 16.8591 13.8492 16.5758L10.1992 9.90078L6.29921 13.8008L6.59921 15.9508C6.61588 16.0674 6.60754 16.1758 6.57421 16.2758C6.54088 16.3758 6.48254 16.4674 6.39921 16.5508L6.27421 16.6758C6.10754 16.8424 5.90754 16.9131 5.67421 16.8878C5.44088 16.8624 5.26588 16.7418 5.14921 16.5258L3.84921 14.1508Z" fill="#B30000"/>
</svg>
