<svg width="20" height="20" viewBox="0 0 20 20" fill="none" xmlns="http://www.w3.org/2000/svg">
<path opacity="0.16" d="M17.0002 9.00021C17.0002 11.1219 16.1574 13.1568 14.6571 14.6571C13.1568 16.1574 11.1219 17.0002 9.00021 17.0002C6.87848 17.0002 4.84365 16.1574 3.34336 14.6571C1.84307 13.1568 1.00021 11.1219 1.00021 9.00021C1.00021 6.87848 1.84307 4.84365 3.34336 3.34336C4.84365 1.84307 6.87848 1.00021 9.00021 1.00021C11.1219 1.00021 13.1568 1.84307 14.6571 3.34336C16.1574 4.84365 17.0002 6.87848 17.0002 9.00021Z" fill="black"/>
<path d="M19.0002 19.0002L14.6572 14.6572M14.6572 14.6572C15.4001 13.9143 15.9894 13.0324 16.3914 12.0618C16.7935 11.0911 17.0004 10.0508 17.0004 9.00021C17.0004 7.9496 16.7935 6.90929 16.3914 5.93866C15.9894 4.96803 15.4001 4.08609 14.6572 3.34321C13.9143 2.60032 13.0324 2.01103 12.0618 1.60898C11.0911 1.20693 10.0508 1 9.00021 1C7.9496 1 6.90929 1.20693 5.93866 1.60898C4.96803 2.01103 4.08609 2.60032 3.34321 3.34321C1.84288 4.84354 1 6.87842 1 9.00021C1 11.122 1.84288 13.1569 3.34321 14.6572C4.84354 16.1575 6.87842 17.0004 9.00021 17.0004C11.122 17.0004 13.1569 16.1575 14.6572 14.6572Z" stroke="#0057FF" stroke-width="2" stroke-linecap="round" stroke-linejoin="round"/>
</svg>
