<svg width="20" height="20" viewBox="0 0 20 20" fill="none" xmlns="http://www.w3.org/2000/svg">
<path d="M16.4838 14.7671C15.1169 15.0952 13.69 15.0793 12.3308 14.7208C10.9715 14.3622 9.72247 13.6722 8.69539 12.7125C7.66832 11.7528 6.89531 10.5534 6.44558 9.22164C5.99586 7.8899 5.88346 6.46744 6.11846 5.08161C6.08272 5.11613 6.04498 5.14851 6.00545 5.17861C5.72544 5.39159 5.37543 5.47059 4.6754 5.62858L4.04038 5.77257C1.58029 6.32954 0.350248 6.60752 0.0572371 7.54847C-0.234773 8.48842 0.603257 9.46936 2.28032 11.4302L2.71433 11.9372C3.19035 12.4942 3.42936 12.7732 3.53636 13.1172C3.64337 13.4621 3.60736 13.8341 3.53536 14.5771L3.46936 15.254C3.21635 17.8709 3.08935 19.1788 3.85537 19.7598C4.6214 20.3417 5.77344 19.8118 8.07553 18.7508L8.67255 18.4768C9.32657 18.1749 9.65358 18.0249 10.0006 18.0249C10.3476 18.0249 10.6746 18.1749 11.3296 18.4768L11.9247 18.7508C14.2277 19.8108 15.3798 20.3407 16.1448 19.7608C16.9118 19.1788 16.7848 17.8709 16.5318 15.254L16.4838 14.7671Z" fill="#0057FF"/>
<path opacity="0.5" d="M7.15296 3.40772L6.82494 3.99569C6.46493 4.64165 6.28492 4.96463 6.00491 5.17762C6.04492 5.14762 6.08192 5.11562 6.11792 5.08063C5.88286 6.46655 5.99525 7.88914 6.44503 9.22097C6.8948 10.5528 7.66791 11.7523 8.69511 12.712C9.72232 13.6718 10.9715 14.3618 12.3309 14.7202C13.6903 15.0787 15.1173 15.0945 16.4843 14.7661L16.4643 14.5761C16.3933 13.8331 16.3573 13.4611 16.4643 13.1162C16.5713 12.7722 16.8093 12.4932 17.2863 11.9362L17.7203 11.4293C19.3974 9.46938 20.2354 8.48843 19.9424 7.54748C19.6504 6.60654 18.4204 6.32755 15.9603 5.77159L15.3242 5.62759C14.6252 5.4696 14.2752 5.39061 13.9942 5.17762C13.7142 4.96463 13.5342 4.64165 13.1742 3.99569L12.8472 3.40772C11.5801 1.13585 10.9471 -8.39233e-05 10.0001 -8.39233e-05C9.05302 -8.39233e-05 8.42 1.13585 7.15296 3.40772Z" fill="#0057FF"/>
</svg>
