<svg width="20" height="20" viewBox="0 0 20 20" fill="none" xmlns="http://www.w3.org/2000/svg">
<path opacity="0.5" d="M10 20C15.5228 20 20 15.5228 20 10C20 4.47715 15.5228 0 10 0C4.47715 0 0 4.47715 0 10C0 15.5228 4.47715 20 10 20Z" fill="#0057FF"/>
<path d="M6.575 7.44701C6.388 5.36301 4.781 3.42101 4 2.71101L3.57 2.34101C5.3696 0.825786 7.64746 -0.00352463 10 1.12603e-05C12.214 1.12603e-05 14.26 0.720011 15.916 1.93601C16.15 2.64701 15.704 4.13201 15.236 4.84201C15.066 5.09901 14.682 5.41901 14.26 5.72201C13.31 6.40501 12.11 6.74201 11.5 8.00001C11.3475 8.31673 11.318 8.67874 11.417 9.01601C11.477 9.23601 11.517 9.47501 11.517 9.70801C11.519 10.463 10.755 11.008 10 11C8.036 10.979 6.75 9.39601 6.575 7.44701ZM11.437 16.276C12.425 14.414 15.718 14.414 15.718 14.414C19.15 14.378 19.614 12.294 19.924 11.241C19.6506 13.4221 18.6665 15.4526 17.1239 17.0185C15.5812 18.5845 13.5658 19.5989 11.389 19.905C11.066 19.225 10.684 17.695 11.437 16.276Z" fill="#0057FF"/>
</svg>
